<svg width="60" height="60" viewBox="0 0 60 60" fill="none" xmlns="http://www.w3.org/2000/svg">
<path d="M14.5822 40.7472L14.5823 40.7472L16.6276 37.3467C16.628 37.346 16.6284 37.3454 16.6289 37.3447C16.7218 37.1873 16.8397 37.0469 16.9771 36.9286L13.632 36.9286C13.6317 36.9286 13.6314 36.9286 13.6311 36.9286H13.6299V36.4286C13.3495 36.4298 13.0717 36.374 12.8135 36.2646C12.5553 36.1552 12.322 35.9945 12.1278 35.7923C11.9335 35.59 11.7824 35.3504 11.6835 35.088C11.5847 34.8255 11.5402 34.5458 11.5527 34.2656L14.5822 40.7472ZM14.5822 40.7472L14.5791 40.7524C14.4081 41.0449 14.2964 41.3682 14.2506 41.7039C14.2048 42.0396 14.2258 42.3811 14.3123 42.7086C14.3988 43.0362 14.5491 43.3435 14.7546 43.6128C14.9592 43.8809 15.2144 44.1061 15.5057 44.2757C15.9003 44.5138 16.3532 44.6382 16.8141 44.6348M14.5822 40.7472L19.0474 43.3632M46.3688 36.9286C46.7186 36.9295 47.0651 36.8597 47.3873 36.7234C47.7095 36.587 48.0008 36.3869 48.2438 36.1352C48.4867 35.8834 48.6762 35.5851 48.801 35.2583C48.9257 34.9314 48.9831 34.5827 48.9697 34.2331L48.9695 34.2287C48.9038 32.8322 47.6992 31.7768 46.3272 31.7768H40.5977L33.7478 20.1911L33.4906 19.7561L33.0584 20.0179L33.3174 20.4455C33.0584 20.0179 33.0582 20.018 33.0579 20.0181L33.0574 20.0184L33.0565 20.019L33.0543 20.0203L33.0496 20.0233L33.0382 20.0306C33.0298 20.0361 33.0196 20.043 33.0078 20.0513C32.9841 20.068 32.954 20.0905 32.918 20.1197C32.846 20.1783 32.7508 20.2638 32.6377 20.3842C32.5759 20.4499 32.5088 20.526 32.4372 20.6136L33.0857 19.508L33.0858 19.5079L35.566 15.2826L35.567 15.2809C36.2512 14.1048 35.9687 12.5293 34.7691 11.7661C34.4769 11.5789 34.1501 11.4525 33.8081 11.3942C33.4657 11.3359 33.1151 11.3472 32.7772 11.4273C32.4393 11.5074 32.121 11.6547 31.8413 11.8604C31.5615 12.0662 31.326 12.3262 31.1489 12.6249L31.1476 12.6271L30.2446 14.168L29.3427 12.6273L29.3419 12.6261C29.165 12.3258 28.9292 12.0644 28.6486 11.8575C28.368 11.6507 28.0485 11.5028 27.7093 11.4226C27.3701 11.3424 27.0182 11.3316 26.6747 11.3909C26.3321 11.4501 26.0049 11.5777 25.7128 11.7662C24.5096 12.5285 24.2222 14.1029 24.9027 15.2763L24.9041 15.2786L27.2358 19.2508L19.8701 31.7888H13.6955C12.3378 31.7888 11.1081 32.8244 11.0531 34.2449L46.3701 36.4286M46.3688 36.9286L46.3701 36.4286M46.3688 36.9286H46.3701V36.4286M46.3688 36.9286H46.3661H43.6006M46.3701 36.4286H46.3661H43.3066L43.6006 36.9286M43.6006 36.9286H43.0206L42.7353 36.4433M43.6006 36.9286L45.8184 40.7007L45.3897 40.958L45.8208 40.7046L45.8195 40.7026L42.7603 36.4286M42.7603 36.4286H42.7353V36.4433M42.7603 36.4286L42.7353 36.4433M42.7603 36.4286H43.2353V36.4433H42.7353M35.8766 33.5126C36.2177 34.0933 36.4764 34.5874 36.5728 35.1918L35.6613 33.6392M35.8766 33.5126L35.8419 33.4421L35.8338 33.4257L35.8246 33.41C35.6272 33.0735 35.3465 32.7904 35.0285 32.5613L35.603 33.5399L35.612 33.5553L35.6518 33.6231M35.8766 33.5126L35.8847 33.5292L35.6613 33.6392M35.8766 33.5126C35.8734 33.5072 35.8703 33.5018 35.8671 33.4965L35.6518 33.6231M35.6518 33.6231L35.4362 33.75L35.6613 33.6392M35.6518 33.6231L35.6613 33.6392M25.0085 32.2929L25.293 31.8076H25.8727L25.5795 32.3076H25.5085V32.2929H25.0085ZM25.0085 32.2929L25.0336 32.3076H25.0085V32.2929ZM35.9516 36.4154L35.9481 36.4138L35.9531 36.4138M35.9516 36.4154L35.5996 36.7674L35.6036 36.7714L35.7462 36.9141L35.9537 36.9138L35.9531 36.4219L35.9531 36.4161M35.9516 36.4154L35.9531 36.4138M35.9516 36.4154L35.9531 36.4161M35.9531 36.4161L35.9571 36.4179M35.9531 36.4161L35.9531 36.4138M35.9571 36.4179L36.3107 36.0643L36.3067 36.0603L36.16 35.9136L36.0986 35.9137C36.0763 36.0822 36.0309 36.247 35.9634 36.4036C35.9613 36.4084 35.9592 36.4131 35.9571 36.4179ZM35.9571 36.4179L35.9531 36.4138M19.0474 43.3632L18.6161 43.1103L19.0454 43.3665L19.0465 43.3647M19.0474 43.3632C19.0471 43.3637 19.0468 43.3642 19.0465 43.3647M19.0474 43.3632L19.0465 43.3647M19.0465 43.3647C18.818 43.7537 18.4913 44.0759 18.0991 44.2988C17.7075 44.5213 17.2644 44.6372 16.8141 44.6348M16.8141 44.6348C16.8153 44.6348 16.8165 44.6348 16.8177 44.6348L16.8134 44.1348L16.81 44.6348C16.8113 44.6348 16.8127 44.6348 16.8141 44.6348ZM30.2437 23.3652L30.675 23.6181L30.6751 23.6181L30.2437 23.3652ZM20.1079 36.9286C19.6126 36.6779 19.0255 36.5246 18.371 36.5246H18.0693H18.0683V36.9286H20.1079ZM31.8776 27.1748L32.3076 26.9196L31.876 27.1721L31.8769 27.1736C31.8771 27.174 31.8773 27.1744 31.8776 27.1748ZM0.5 30C0.5 13.7038 13.7038 0.5 30 0.5C46.2962 0.5 59.5 13.7038 59.5 30C59.5 46.2962 46.2962 59.5 30 59.5C13.7038 59.5 0.5 46.2962 0.5 30Z" fill="url(#paint0_linear_20_64)" stroke="black"/>
<defs>
<linearGradient id="paint0_linear_20_64" x1="30" y1="0" x2="30" y2="60" gradientUnits="userSpaceOnUse">
<stop stop-color="#15C9FB"/>
<stop offset="1" stop-color="#1977F3"/>
</linearGradient>
</defs>
</svg>
